<?xml version="1.0" standalone="no"?>
<!DOCTYPE svg PUBLIC "-//W3C//DTD SVG 20010904//EN"
 "http://www.w3.org/TR/2001/REC-SVG-20010904/DTD/svg10.dtd">
<svg version="1.0" xmlns="http://www.w3.org/2000/svg"
 width="539.000000pt" height="382.000000pt" viewBox="0 0 539.000000 382.000000"
 preserveAspectRatio="xMidYMid meet">

<g transform="translate(0.000000,382.000000) scale(0.100000,-0.100000)"
fill="#000000" stroke="none">
<path d="M0 1910 l0 -1910 2695 0 2695 0 0 1910 0 1910 -2695 0 -2695 0 0
-1910z m4772 1574 c61 -20 117 -70 153 -135 l30 -54 3 -1150 c1 -632 0 -1156
-3 -1164 -4 -10 -37 16 -110 89 l-105 105 0 1033 0 1033 -25 24 -24 25 -1503
0 c-827 0 -1716 -3 -1977 -7 -442 -6 -476 -8 -493 -25 -17 -17 -18 -67 -18
-1190 0 -1041 2 -1173 15 -1188 15 -16 123 -17 1688 -13 l1672 5 90 -91 c74
-76 87 -93 75 -102 -13 -9 -12 -10 2 -5 10 3 20 1 23 -4 4 -6 -145 -10 -402
-10 -224 0 -1040 -3 -1813 -7 l-1405 -6 -40 21 c-51 26 -90 66 -109 114 -14
33 -16 176 -16 1251 0 1357 -4 1275 71 1361 44 50 95 81 156 95 22 5 909 9
2029 10 1776 1 1995 -1 2036 -15z m-1227 -523 c183 -38 335 -118 461 -245 300
-302 356 -755 136 -1119 l-54 -90 88 -88 c78 -78 93 -89 123 -89 33 0 56 -21
323 -287 159 -159 301 -305 315 -327 50 -71 31 -177 -38 -227 -42 -29 -124
-37 -166 -16 -29 16 -236 210 -505 477 -136 134 -138 136 -138 180 0 42 -4 49
-82 127 -46 46 -86 83 -90 83 -4 0 -35 -18 -68 -39 -74 -48 -185 -95 -277
-118 -102 -25 -323 -22 -426 5 -174 47 -321 135 -443 265 -167 177 -244 373
-244 617 0 248 86 462 255 636 145 148 282 219 520 268 56 11 228 4 310 -13z
m-1370 -310 c27 -10 54 -25 59 -33 7 -12 -84 -340 -282 -1011 -32 -110 -43
-117 -134 -84 -49 17 -64 27 -66 44 -2 12 47 199 108 415 198 700 194 688 244
688 12 0 43 -9 71 -19z m-549 -92 c32 -31 54 -60 54 -73 0 -14 -66 -87 -195
-216 l-195 -195 185 -185 c102 -102 185 -189 185 -193 0 -19 -114 -127 -134
-127 -24 0 -516 486 -516 510 0 8 116 130 257 272 190 190 264 258 281 258 14
0 44 -20 78 -51z m420 -2116 c15 -21 39 -48 53 -60 l26 -23 590 0 c660 0 611
-6 661 75 l29 45 543 0 544 0 71 -65 c98 -90 159 -118 251 -118 108 0 202 50
257 139 l21 35 72 -3 71 -3 -2 -68 c-2 -118 -64 -211 -172 -261 l-46 -21
-2300 0 -2300 0 -47 23 c-65 32 -134 111 -153 175 -15 52 -20 148 -8 160 3 4
413 7 909 7 l903 0 27 -37z"/>
<path d="M3182 2740 c-119 -31 -206 -83 -303 -180 -93 -92 -141 -168 -180
-285 -21 -61 -24 -89 -24 -210 1 -132 3 -145 32 -221 53 -141 134 -248 248
-330 143 -101 272 -139 448 -132 185 8 313 64 448 198 82 82 145 178 181 280
20 56 23 84 22 210 0 131 -2 152 -26 218 -40 110 -84 178 -178 272 -98 98
-185 149 -306 180 -102 26 -261 26 -362 0z"/>
</g>
</svg>
